<?xml version="1.0" encoding="UTF-8"?>
<!--Generator: Apple Native CoreSVG 149-->
<!DOCTYPE svg
PUBLIC "-//W3C//DTD SVG 1.1//EN"
       "http://www.w3.org/Graphics/SVG/1.1/DTD/svg11.dtd">
<svg version="1.1" xmlns="http://www.w3.org/2000/svg" xmlns:xlink="http://www.w3.org/1999/xlink" width="3300" height="2200">
 <!--glyph: "uni100061.medium", point size: 100.000000, font version: "Version 16.0d18e1", template writer version: "8"-->
 <g id="Notes">
  <rect height="2200" id="artboard" style="fill:white;opacity:1" width="3300" x="0" y="0"/>
  <line id="" style="fill:none;stroke:black;opacity:1;stroke-width:0.5;" x1="263" x2="3036" y1="292" y2="292"/>
  <text style="stroke:none;fill:black;font-family:-apple-system,&quot;SF Pro Display&quot;,&quot;SF Pro Text&quot;,Helvetica,sans-serif;font-weight:bold;" transform="matrix(1 0 0 1 263 322)">Weight/Scale Variations</text>
  <text style="stroke:none;fill:black;font-family:-apple-system,&quot;SF Pro Display&quot;,&quot;SF Pro Text&quot;,Helvetica,sans-serif;text-anchor:middle;" transform="matrix(1 0 0 1 559.711 322)">Ultralight</text>
  <text style="stroke:none;fill:black;font-family:-apple-system,&quot;SF Pro Display&quot;,&quot;SF Pro Text&quot;,Helvetica,sans-serif;text-anchor:middle;" transform="matrix(1 0 0 1 856.422 322)">Thin</text>
  <text style="stroke:none;fill:black;font-family:-apple-system,&quot;SF Pro Display&quot;,&quot;SF Pro Text&quot;,Helvetica,sans-serif;text-anchor:middle;" transform="matrix(1 0 0 1 1153.13 322)">Light</text>
  <text style="stroke:none;fill:black;font-family:-apple-system,&quot;SF Pro Display&quot;,&quot;SF Pro Text&quot;,Helvetica,sans-serif;text-anchor:middle;" transform="matrix(1 0 0 1 1449.84 322)">Regular</text>
  <text style="stroke:none;fill:black;font-family:-apple-system,&quot;SF Pro Display&quot;,&quot;SF Pro Text&quot;,Helvetica,sans-serif;text-anchor:middle;" transform="matrix(1 0 0 1 1746.56 322)">Medium</text>
  <text style="stroke:none;fill:black;font-family:-apple-system,&quot;SF Pro Display&quot;,&quot;SF Pro Text&quot;,Helvetica,sans-serif;text-anchor:middle;" transform="matrix(1 0 0 1 2043.27 322)">Semibold</text>
  <text style="stroke:none;fill:black;font-family:-apple-system,&quot;SF Pro Display&quot;,&quot;SF Pro Text&quot;,Helvetica,sans-serif;text-anchor:middle;" transform="matrix(1 0 0 1 2339.98 322)">Bold</text>
  <text style="stroke:none;fill:black;font-family:-apple-system,&quot;SF Pro Display&quot;,&quot;SF Pro Text&quot;,Helvetica,sans-serif;text-anchor:middle;" transform="matrix(1 0 0 1 2636.69 322)">Heavy</text>
  <text style="stroke:none;fill:black;font-family:-apple-system,&quot;SF Pro Display&quot;,&quot;SF Pro Text&quot;,Helvetica,sans-serif;text-anchor:middle;" transform="matrix(1 0 0 1 2933.4 322)">Black</text>
  <line id="" style="fill:none;stroke:black;opacity:1;stroke-width:0.5;" x1="263" x2="3036" y1="1903" y2="1903"/>
  <g id="" transform="matrix(1 0 0 1 263 1933)">
   <path d="M9.24805 0.830078C13.5547 0.830078 17.1387-2.74414 17.1387-7.05078C17.1387-11.3574 13.5449-14.9316 9.23828-14.9316C4.94141-14.9316 1.36719-11.3574 1.36719-7.05078C1.36719-2.74414 4.95117 0.830078 9.24805 0.830078ZM9.24805-0.654297C5.70312-0.654297 2.87109-3.49609 2.87109-7.05078C2.87109-10.6055 5.69336-13.4473 9.23828-13.4473C12.793-13.4473 15.6348-10.6055 15.6445-7.05078C15.6543-3.49609 12.8027-0.654297 9.24805-0.654297ZM6.39648-6.31836L8.50586-6.31836L8.50586-4.19922C8.50586-3.75977 8.79883-3.45703 9.22852-3.45703C9.67773-3.45703 9.9707-3.75977 9.9707-4.19922L9.9707-6.31836L12.0996-6.31836C12.5391-6.31836 12.8418-6.61133 12.8418-7.04102C12.8418-7.48047 12.5391-7.7832 12.0996-7.7832L9.9707-7.7832L9.9707-9.89258C9.9707-10.3418 9.67773-10.6445 9.22852-10.6445C8.79883-10.6445 8.50586-10.3418 8.50586-9.89258L8.50586-7.7832L6.39648-7.7832C5.94727-7.7832 5.64453-7.48047 5.64453-7.04102C5.64453-6.61133 5.94727-6.31836 6.39648-6.31836Z"/>
  </g>
  <g id="" transform="matrix(1 0 0 1 281.506 1933)">
   <path d="M11.709 2.91016C17.1582 2.91016 21.6699-1.61133 21.6699-7.05078C21.6699-12.5 17.1484-17.0117 11.6992-17.0117C6.25977-17.0117 1.74805-12.5 1.74805-7.05078C1.74805-1.61133 6.26953 2.91016 11.709 2.91016ZM11.709 1.25C7.09961 1.25 3.41797-2.44141 3.41797-7.05078C3.41797-11.6602 7.08984-15.3516 11.6992-15.3516C16.3086-15.3516 20-11.6602 20.0098-7.05078C20.0195-2.44141 16.3184 1.25 11.709 1.25ZM7.98828-6.23047L10.8789-6.23047L10.8789-3.32031C10.8789-2.83203 11.2109-2.5 11.6895-2.5C12.1777-2.5 12.5195-2.83203 12.5195-3.32031L12.5195-6.23047L15.4297-6.23047C15.918-6.23047 16.25-6.5625 16.25-7.04102C16.25-7.5293 15.918-7.87109 15.4297-7.87109L12.5195-7.87109L12.5195-10.7617C12.5195-11.2695 12.1777-11.6016 11.6895-11.6016C11.2109-11.6016 10.8789-11.2598 10.8789-10.7617L10.8789-7.87109L7.98828-7.87109C7.48047-7.87109 7.14844-7.5293 7.14844-7.04102C7.14844-6.5625 7.49023-6.23047 7.98828-6.23047Z"/>
  </g>
  <g id="" transform="matrix(1 0 0 1 304.924 1933)">
   <path d="M14.9707 5.66406C21.9336 5.66406 27.6953-0.0976562 27.6953-7.05078C27.6953-14.0137 21.9238-19.7754 14.9609-19.7754C8.00781-19.7754 2.25586-14.0137 2.25586-7.05078C2.25586-0.0976562 8.01758 5.66406 14.9707 5.66406ZM14.9707 3.84766C8.93555 3.84766 4.08203-1.01562 4.08203-7.05078C4.08203-13.0957 8.92578-17.9492 14.9609-17.9492C21.0059-17.9492 25.8594-13.0957 25.8691-7.05078C25.8789-1.01562 21.0156 3.84766 14.9707 3.84766ZM10.0586-6.14258L14.0625-6.14258L14.0625-2.12891C14.0625-1.5918 14.4336-1.2207 14.9512-1.2207C15.4883-1.2207 15.8594-1.5918 15.8594-2.12891L15.8594-6.14258L19.8828-6.14258C20.4102-6.14258 20.791-6.51367 20.791-7.03125C20.791-7.56836 20.4199-7.94922 19.8828-7.94922L15.8594-7.94922L15.8594-11.9531C15.8594-12.5098 15.4883-12.8809 14.9512-12.8809C14.4336-12.8809 14.0625-12.5 14.0625-11.9531L14.0625-7.94922L10.0586-7.94922C9.50195-7.94922 9.13086-7.56836 9.13086-7.03125C9.13086-6.51367 9.51172-6.14258 10.0586-6.14258Z"/>
  </g>
  <text style="stroke:none;fill:black;font-family:-apple-system,&quot;SF Pro Display&quot;,&quot;SF Pro Text&quot;,Helvetica,sans-serif;font-weight:bold;" transform="matrix(1 0 0 1 263 1953)">Design Variations</text>
  <text style="stroke:none;fill:black;font-family:-apple-system,&quot;SF Pro Display&quot;,&quot;SF Pro Text&quot;,Helvetica,sans-serif;" transform="matrix(1 0 0 1 263 1971)">Symbols are supported in up to nine weights and three scales.</text>
  <text style="stroke:none;fill:black;font-family:-apple-system,&quot;SF Pro Display&quot;,&quot;SF Pro Text&quot;,Helvetica,sans-serif;" transform="matrix(1 0 0 1 263 1989)">For optimal layout with text and other symbols, vertically align</text>
  <text style="stroke:none;fill:black;font-family:-apple-system,&quot;SF Pro Display&quot;,&quot;SF Pro Text&quot;,Helvetica,sans-serif;" transform="matrix(1 0 0 1 263 2007)">symbols with the adjacent text.</text>
  <line id="" style="fill:none;stroke:#00AEEF;stroke-width:0.5;opacity:1.0;" x1="776" x2="776" y1="1919" y2="1933"/>
  <g id="" transform="matrix(1 0 0 1 776 1933)">
   <path d="M3.31055 0.126953C3.82812 0.126953 4.08203-0.0683594 4.26758-0.605469L5.52734-4.0625L11.2891-4.0625L12.5488-0.605469C12.7344-0.0683594 12.9883 0.126953 13.4961 0.126953C14.0137 0.126953 14.3457-0.185547 14.3457-0.673828C14.3457-0.839844 14.3164-0.986328 14.2383-1.20117L9.6582-13.3887C9.43359-13.9941 9.0332-14.2871 8.4082-14.2871C7.80273-14.2871 7.39258-13.9941 7.17773-13.3984L2.59766-1.19141C2.51953-0.976562 2.49023-0.830078 2.49023-0.664062C2.49023-0.175781 2.80273 0.126953 3.31055 0.126953ZM6.00586-5.53711L8.37891-12.1094L8.42773-12.1094L10.8008-5.53711Z"/>
  </g>
  <line id="" style="fill:none;stroke:#00AEEF;stroke-width:0.5;opacity:1.0;" x1="792.836" x2="792.836" y1="1919" y2="1933"/>
  <text style="stroke:none;fill:black;font-family:-apple-system,&quot;SF Pro Display&quot;,&quot;SF Pro Text&quot;,Helvetica,sans-serif;font-weight:bold;" transform="matrix(1 0 0 1 776 1953)">Margins</text>
  <text style="stroke:none;fill:black;font-family:-apple-system,&quot;SF Pro Display&quot;,&quot;SF Pro Text&quot;,Helvetica,sans-serif;" transform="matrix(1 0 0 1 776 1971)">Leading and trailing margins on the left and right side of each symbol</text>
  <text style="stroke:none;fill:black;font-family:-apple-system,&quot;SF Pro Display&quot;,&quot;SF Pro Text&quot;,Helvetica,sans-serif;" transform="matrix(1 0 0 1 776 1989)">can be adjusted by modifying the x-location of the margin guidelines.</text>
  <text style="stroke:none;fill:black;font-family:-apple-system,&quot;SF Pro Display&quot;,&quot;SF Pro Text&quot;,Helvetica,sans-serif;" transform="matrix(1 0 0 1 776 2007)">Modifications are automatically applied proportionally to all</text>
  <text style="stroke:none;fill:black;font-family:-apple-system,&quot;SF Pro Display&quot;,&quot;SF Pro Text&quot;,Helvetica,sans-serif;" transform="matrix(1 0 0 1 776 2025)">scales and weights.</text>
  <g id="" transform="matrix(1 0 0 1 1289 1933)">
   <path d="M2.8418 1.86523L4.54102 3.57422C5.40039 4.44336 6.38672 4.38477 7.31445 3.35938L17.4902-7.85156C17.7539-7.76367 18.0273-7.7832 18.3398-7.8418L19.4043-8.03711L20.0684-7.36328L20.0293-6.80664C19.9902-6.30859 20.1172-5.92773 20.6055-5.44922L21.3672-4.70703C21.8457-4.22852 22.4609-4.19922 22.9297-4.66797L25.8398-7.58789C26.3086-8.05664 26.2891-8.65234 25.8105-9.13086L25.0391-9.89258C24.5605-10.3711 24.1895-10.5273 23.7109-10.4883L23.1348-10.4395L22.4902-11.0742L22.7344-12.1973C22.8613-12.7637 22.7051-13.2031 22.1191-13.7891L19.9219-15.9766C16.582-19.2969 12.1484-19.2188 9.25781-16.3281C8.83789-15.918 8.80859-15.3418 9.04297-14.9512C9.27734-14.5898 9.73633-14.3555 10.3809-14.5215C11.8457-14.8633 13.3691-14.9219 14.7949-13.9844L14.209-12.5293C14.0137-12.0508 13.9844-11.6504 14.1113-11.2891L3.04688-0.898438C2.06055 0.0195312 1.98242 0.996094 2.8418 1.86523ZM10.752-15.957C13.1836-17.7344 16.4746-17.4316 18.7012-15.2051L21.1328-12.793C21.3672-12.5586 21.4062-12.373 21.3379-12.0312L21.0156-10.5469L22.5195-9.0625L23.5059-9.12109C23.7598-9.13086 23.8379-9.11133 24.0332-8.91602L24.6094-8.33984L22.168-5.89844L21.5918-6.47461C21.3965-6.66992 21.3672-6.74805 21.377-7.01172L21.4453-7.98828L19.9512-9.47266L18.4277-9.21875C18.1055-9.15039 17.959-9.17969 17.7148-9.41406L15.7129-11.416C15.459-11.6504 15.4297-11.8164 15.5859-12.1875L16.4648-14.2773C14.9023-15.7324 12.8711-16.3574 10.8398-15.7617C10.6836-15.7227 10.625-15.8496 10.752-15.957ZM5.27344 2.30469L4.10156 1.14258C3.63281 0.683594 3.74023 0.341797 4.14062-0.0195312L14.9512-10.1953L16.416-8.71094L6.42578 2.27539C6.07422 2.67578 5.74219 2.77344 5.27344 2.30469Z"/>
  </g>
  <text style="stroke:none;fill:black;font-family:-apple-system,&quot;SF Pro Display&quot;,&quot;SF Pro Text&quot;,Helvetica,sans-serif;font-weight:bold;" transform="matrix(1 0 0 1 1289 1953)">Exporting</text>
  <text style="stroke:none;fill:black;font-family:-apple-system,&quot;SF Pro Display&quot;,&quot;SF Pro Text&quot;,Helvetica,sans-serif;" transform="matrix(1 0 0 1 1289 1971)">Symbols should be outlined when exporting to ensure the</text>
  <text style="stroke:none;fill:black;font-family:-apple-system,&quot;SF Pro Display&quot;,&quot;SF Pro Text&quot;,Helvetica,sans-serif;" transform="matrix(1 0 0 1 1289 1989)">design is preserved when submitting to Xcode.</text>
  <text id="template-version" style="stroke:none;fill:black;font-family:-apple-system,&quot;SF Pro Display&quot;,&quot;SF Pro Text&quot;,Helvetica,sans-serif;text-anchor:end;" transform="matrix(1 0 0 1 3036 1933)">Template v.2.0</text>
  <text style="stroke:none;fill:black;font-family:-apple-system,&quot;SF Pro Display&quot;,&quot;SF Pro Text&quot;,Helvetica,sans-serif;text-anchor:end;" transform="matrix(1 0 0 1 3036 1951)">Requires Xcode 12 or greater</text>
  <text style="stroke:none;fill:black;font-family:-apple-system,&quot;SF Pro Display&quot;,&quot;SF Pro Text&quot;,Helvetica,sans-serif;text-anchor:end;" transform="matrix(1 0 0 1 3036 1969)">Generated from xmark.circle.fill</text>
  <text style="stroke:none;fill:black;font-family:-apple-system,&quot;SF Pro Display&quot;,&quot;SF Pro Text&quot;,Helvetica,sans-serif;text-anchor:end;" transform="matrix(1 0 0 1 3036 1987)">Typeset at 100 points</text>
  <text style="stroke:none;fill:black;font-family:-apple-system,&quot;SF Pro Display&quot;,&quot;SF Pro Text&quot;,Helvetica,sans-serif;" transform="matrix(1 0 0 1 263 726)">Small</text>
  <text style="stroke:none;fill:black;font-family:-apple-system,&quot;SF Pro Display&quot;,&quot;SF Pro Text&quot;,Helvetica,sans-serif;" transform="matrix(1 0 0 1 263 1156)">Medium</text>
  <text style="stroke:none;fill:black;font-family:-apple-system,&quot;SF Pro Display&quot;,&quot;SF Pro Text&quot;,Helvetica,sans-serif;" transform="matrix(1 0 0 1 263 1586)">Large</text>
 </g>
 <g id="Guides">
  <g id="H-reference" style="fill:#27AAE1;stroke:none;" transform="matrix(1 0 0 1 339 696)">
   <path d="M0.976562 0L3.66211 0L12.9883-24.4629L45.752-24.4629L55.127 0L57.7637 0L30.6152-70.459L28.125-70.459ZM29.3457-67.1387L29.4434-67.1387L44.873-26.709L13.8672-26.709Z"/>
  </g>
  <line id="Baseline-S" style="fill:none;stroke:#27AAE1;opacity:1;stroke-width:0.5;" x1="263" x2="3036" y1="696" y2="696"/>
  <line id="Capline-S" style="fill:none;stroke:#27AAE1;opacity:1;stroke-width:0.5;" x1="263" x2="3036" y1="625.541" y2="625.541"/>
  <g id="H-reference" style="fill:#27AAE1;stroke:none;" transform="matrix(1 0 0 1 339 1126)">
   <path d="M0.976562 0L3.66211 0L12.9883-24.4629L45.752-24.4629L55.127 0L57.7637 0L30.6152-70.459L28.125-70.459ZM29.3457-67.1387L29.4434-67.1387L44.873-26.709L13.8672-26.709Z"/>
  </g>
  <line id="Baseline-M" style="fill:none;stroke:#27AAE1;opacity:1;stroke-width:0.5;" x1="263" x2="3036" y1="1126" y2="1126"/>
  <line id="Capline-M" style="fill:none;stroke:#27AAE1;opacity:1;stroke-width:0.5;" x1="263" x2="3036" y1="1055.54" y2="1055.54"/>
  <g id="H-reference" style="fill:#27AAE1;stroke:none;" transform="matrix(1 0 0 1 339 1556)">
   <path d="M0.976562 0L3.66211 0L12.9883-24.4629L45.752-24.4629L55.127 0L57.7637 0L30.6152-70.459L28.125-70.459ZM29.3457-67.1387L29.4434-67.1387L44.873-26.709L13.8672-26.709Z"/>
  </g>
  <line id="Baseline-L" style="fill:none;stroke:#27AAE1;opacity:1;stroke-width:0.5;" x1="263" x2="3036" y1="1556" y2="1556"/>
  <line id="Capline-L" style="fill:none;stroke:#27AAE1;opacity:1;stroke-width:0.5;" x1="263" x2="3036" y1="1485.54" y2="1485.54"/>
  <line id="left-margin" style="fill:none;stroke:#00AEEF;stroke-width:0.5;opacity:1.0;" x1="1391.3" x2="1391.3" y1="1030.79" y2="1150.12"/>
  <line id="right-margin" style="fill:none;stroke:#00AEEF;stroke-width:0.5;opacity:1.0;" x1="1508.39" x2="1508.39" y1="1030.79" y2="1150.12"/>
 </g>
 <g id="Symbols">
  <g id="Black-L" transform="matrix(1 0 0 1 2854.05 1556)">
   <path d="M79.3457 32.8613C116.748 32.8613 147.412 2.19727 147.412-35.2051C147.412-72.6074 116.748-103.271 79.2969-103.271C41.8945-103.271 11.2793-72.6074 11.2793-35.2051C11.2793 2.19727 41.9434 32.8613 79.3457 32.8613ZM60.0586-7.4707C55.2246-7.4707 51.4648-11.1816 51.4648-16.1133C51.4648-18.2617 52.3926-20.4102 54.0527-22.0215L67.1387-35.1074L54.0527-48.2422C52.3926-49.8535 51.4648-52.002 51.4648-54.1504C51.4648-59.082 55.2246-62.7441 60.0586-62.7441C62.6465-62.7441 64.6973-61.9629 66.4062-60.2539L79.2969-47.3633L92.334-60.3027C94.0918-62.0117 96.0938-62.793 98.6816-62.793C103.516-62.793 107.227-59.082 107.227-54.1992C107.227-52.0508 106.348-49.9023 104.639-48.291L91.6504-35.1074L104.639-22.0215C106.299-20.4102 107.227-18.2617 107.227-16.1133C107.227-11.1816 103.516-7.4707 98.6328-7.4707C95.9961-7.4707 93.9453-8.30078 92.2363-9.96094L79.2969-22.8027L66.4551-9.96094C64.7461-8.25195 62.6465-7.4707 60.0586-7.4707Z"/>
  </g>
  <g id="Heavy-L" transform="matrix(1 0 0 1 2558.39 1556)">
   <path d="M78.2715 31.7871C115.088 31.7871 145.312 1.5625 145.312-35.2051C145.312-72.0215 115.039-102.246 78.2715-102.246C41.4551-102.246 11.2793-72.0215 11.2793-35.2051C11.2793 1.5625 41.5039 31.7871 78.2715 31.7871ZM58.252-7.66602C53.9551-7.66602 50.6836-10.9863 50.6836-15.332C50.6836-17.2852 51.4648-19.1895 52.9297-20.6055L67.4316-35.1562L52.9297-49.6582C51.4648-51.123 50.6836-53.0273 50.6836-54.9316C50.6836-59.2773 53.9551-62.5488 58.252-62.5488C60.5469-62.5488 62.3535-61.8652 63.8672-60.3516L78.2715-45.9473L92.7734-60.3516C94.2871-61.9141 96.0938-62.5977 98.3398-62.5977C102.637-62.5977 105.957-59.3262 105.957-54.9805C105.957-53.0273 105.127-51.1719 103.662-49.707L89.1602-35.1562L103.613-20.6543C105.078-19.1895 105.908-17.2852 105.908-15.332C105.908-10.9863 102.588-7.66602 98.291-7.66602C95.9961-7.66602 94.1406-8.44727 92.627-9.91211L78.2715-24.2676L63.916-9.91211C62.4023-8.39844 60.5469-7.66602 58.252-7.66602Z"/>
  </g>
  <g id="Bold-L" transform="matrix(1 0 0 1 2262.88 1556)">
   <path d="M77.0996 30.5664C113.232 30.5664 142.92 0.878906 142.92-35.2539C142.92-71.3379 113.184-101.074 77.0508-101.074C40.9668-101.074 11.2793-71.3379 11.2793-35.2539C11.2793 0.878906 41.0156 30.5664 77.0996 30.5664ZM56.25-7.91016C52.5879-7.91016 49.7559-10.791 49.7559-14.502C49.7559-16.1621 50.4395-17.8223 51.709-19.043L67.8223-35.1562L51.709-51.2695C50.4395-52.5391 49.7559-54.1504 49.7559-55.8105C49.7559-59.5215 52.5879-62.3535 56.25-62.3535C58.2031-62.3535 59.7656-61.7188 61.0352-60.4004L77.0508-44.4336L93.2129-60.4492C94.5312-61.8164 96.0449-62.4023 97.9492-62.4023C101.611-62.4023 104.492-59.5703 104.492-55.9082C104.492-54.1992 103.809-52.6367 102.539-51.3184L86.4258-35.1562L102.49-19.0918C103.76-17.8223 104.443-16.2109 104.443-14.502C104.443-10.791 101.562-7.91016 97.9004-7.91016C95.9473-7.91016 94.3848-8.59375 93.0664-9.86328L77.0508-25.8301L61.1328-9.86328C59.8145-8.54492 58.2031-7.91016 56.25-7.91016Z"/>
  </g>
  <g id="Semibold-L" transform="matrix(1 0 0 1 1966.97 1556)">
   <path d="M76.2695 29.7363C111.914 29.7363 141.309 0.390625 141.309-35.2539C141.309-70.8984 111.865-100.244 76.2695-100.244C40.625-100.244 11.2793-70.8984 11.2793-35.2539C11.2793 0.390625 40.6738 29.7363 76.2695 29.7363ZM54.8828-8.10547C51.6602-8.10547 49.1211-10.6445 49.1211-13.916C49.1211-15.4297 49.707-16.8457 50.8301-17.9688L68.0664-35.1562L50.8301-52.3926C49.707-53.5156 49.1211-54.9316 49.1211-56.4453C49.1211-59.7168 51.6602-62.1582 54.8828-62.1582C56.5918-62.1582 57.959-61.6699 59.082-60.498L76.2207-43.3594L93.5059-60.5469C94.7266-61.7188 96.0449-62.2559 97.7051-62.2559C100.928-62.2559 103.467-59.7168 103.467-56.4941C103.467-54.9805 102.881-53.6133 101.758-52.4414L84.5215-35.1562L101.709-17.9688C102.832-16.8457 103.418-15.4297 103.418-13.916C103.418-10.6445 100.879-8.10547 97.6074-8.10547C95.9473-8.10547 94.5312-8.69141 93.3594-9.81445L76.2207-26.9531L59.1797-9.81445C58.0078-8.64258 56.5918-8.10547 54.8828-8.10547Z"/>
  </g>
  <g id="Medium-L" transform="matrix(1 0 0 1 1670.87 1556)">
   <path d="M75.6836 29.1504C110.938 29.1504 140.088 0 140.088-35.2539C140.088-70.5078 110.889-99.6582 75.6348-99.6582C40.3809-99.6582 11.2793-70.5078 11.2793-35.2539C11.2793 0 40.3809 29.1504 75.6836 29.1504ZM53.8574-8.20312C50.9277-8.20312 48.6328-10.5469 48.6328-13.4766C48.6328-14.8438 49.1699-16.1133 50.1953-17.1387L68.2617-35.1562L50.1953-53.2227C49.1699-54.248 48.6328-55.5176 48.6328-56.8848C48.6328-59.8145 50.9277-62.0605 53.8574-62.0605C55.3711-62.0605 56.5918-61.5723 57.5684-60.5469L75.6348-42.5293L93.75-60.5957C94.873-61.6699 96.0449-62.1582 97.5098-62.1582C100.391-62.1582 102.686-59.8633 102.686-56.9824C102.686-55.5664 102.197-54.3457 101.123-53.2715L83.0566-35.1562L101.123-17.1875C102.1-16.1133 102.637-14.8926 102.637-13.4766C102.637-10.5469 100.342-8.20312 97.4121-8.20312C95.8984-8.20312 94.6289-8.78906 93.6035-9.76562L75.6348-27.7832L57.7148-9.76562C56.6406-8.74023 55.3711-8.20312 53.8574-8.20312Z"/>
  </g>
  <g id="Regular-L" transform="matrix(1 0 0 1 1374.97 1556)">
   <path d="M74.8535 28.3203C109.668 28.3203 138.477-0.488281 138.477-35.2539C138.477-70.0684 109.619-98.877 74.8047-98.877C40.0391-98.877 11.2793-70.0684 11.2793-35.2539C11.2793-0.488281 40.0879 28.3203 74.8535 28.3203ZM52.4902-8.39844C50-8.39844 47.998-10.4004 47.998-12.8906C47.998-14.0625 48.4863-15.1855 49.3652-16.0645L68.5059-35.2051L49.3652-54.2969C48.4863-55.1758 47.998-56.2988 47.998-57.5195C47.998-60.0098 50-61.9141 52.4902-61.9141C53.7598-61.9141 54.7852-61.4746 55.6641-60.5957L74.8047-41.4551L94.0918-60.6445C95.0195-61.5723 96.0449-62.0117 97.2168-62.0117C99.707-62.0117 101.709-60.0586 101.709-57.6172C101.709-56.3477 101.318-55.3711 100.391-54.3945L81.2012-35.2051L100.342-16.1133C101.221-15.1855 101.66-14.1113 101.66-12.8906C101.66-10.4004 99.6582-8.39844 97.1191-8.39844C95.8984-8.39844 94.7754-8.88672 93.8965-9.76562L74.8047-28.8574L55.8105-9.76562C54.8828-8.83789 53.7598-8.39844 52.4902-8.39844Z"/>
  </g>
  <g id="Light-L" transform="matrix(1 0 0 1 1079.18 1556)">
   <path d="M73.9258 27.3926C108.301 27.3926 136.621-0.927734 136.621-35.2539C136.621-69.6289 108.252-97.9492 73.9258-97.9492C39.5508-97.9492 11.2793-69.6289 11.2793-35.2539C11.2793-0.927734 39.5996 27.3926 73.9258 27.3926ZM51.3672-9.17969C49.4141-9.17969 47.8516-10.6934 47.8516-12.6465C47.8516-13.5742 48.1934-14.4043 48.9258-15.1367L68.9941-35.2051L48.9258-55.2246C48.1934-55.957 47.8516-56.7871 47.8516-57.7637C47.8516-59.668 49.4141-61.1328 51.3672-61.1328C52.3926-61.1328 53.1738-60.8398 53.9062-60.0586L73.9258-40.0879L93.9941-60.0586C94.7754-60.8887 95.5566-61.2305 96.5332-61.2305C98.4375-61.2305 100-59.7168 100-57.8125C100-56.8359 99.707-56.0547 98.9258-55.2734L78.8574-35.2051L98.877-15.1855C99.6094-14.4043 100-13.623 100-12.6465C100-10.6934 98.4375-9.17969 96.4355-9.17969C95.459-9.17969 94.6289-9.57031 93.8477-10.3027L73.9258-30.2734L54.0039-10.3027C53.2227-9.52148 52.3926-9.17969 51.3672-9.17969Z"/>
  </g>
  <g id="Thin-L" transform="matrix(1 0 0 1 783.693 1556)">
   <path d="M72.7051 26.1719C106.494 26.1719 134.18-1.51367 134.18-35.2539C134.18-69.043 106.494-96.7285 72.7051-96.7285C38.9648-96.7285 11.2793-69.043 11.2793-35.2539C11.2793-1.51367 38.9648 26.1719 72.7051 26.1719ZM49.8535-10.2051C48.6328-10.2051 47.6562-11.1328 47.6562-12.2559C47.6562-12.9395 47.8516-13.4277 48.3887-13.9648L69.6289-35.2051L48.3887-56.4453C47.8516-56.9824 47.6562-57.4707 47.6562-58.1055C47.6562-59.2773 48.6328-60.1562 49.8535-60.1562C50.5859-60.1562 51.0254-59.9609 51.6113-59.3262L72.7051-38.2324L93.7988-59.3262C94.4336-59.9609 94.9219-60.1562 95.5566-60.1562C96.7773-60.1562 97.7539-59.2773 97.7539-58.1055C97.7539-57.4707 97.5586-56.9824 97.0215-56.4453L75.7812-35.2051L97.0215-13.9648C97.5586-13.4277 97.7539-12.9395 97.7539-12.2559C97.7539-11.1328 96.7773-10.2051 95.5566-10.2051C94.9219-10.2051 94.3848-10.4492 93.7988-11.0352L72.7051-32.1289L51.6113-11.0352C51.0254-10.4004 50.5859-10.2051 49.8535-10.2051Z"/>
  </g>
  <g id="Ultralight-L" transform="matrix(1 0 0 1 487.616 1556)">
   <path d="M72.1191 25.5371C105.566 25.5371 132.91-1.80664 132.91-35.2539C132.91-68.75 105.566-96.0938 72.1191-96.0938C38.623-96.0938 11.2793-68.75 11.2793-35.2539C11.2793-1.80664 38.623 25.5371 72.1191 25.5371ZM49.1211-10.7422C48.2422-10.7422 47.5586-11.3281 47.5586-12.1094C47.5586-12.5977 47.7051-12.8906 48.1445-13.3301L69.9707-35.2051L48.1445-57.0312C47.7051-57.4707 47.5586-57.8125 47.5586-58.252C47.5586-59.0332 48.2422-59.6191 49.1211-59.6191C49.6582-59.6191 49.9023-59.5215 50.4395-58.9844L72.1191-37.3047L93.75-58.9844C94.2383-59.4727 94.5801-59.6191 95.0684-59.6191C95.9473-59.6191 96.582-59.0332 96.582-58.252C96.582-57.7637 96.4844-57.4707 96.0449-57.0312L74.2188-35.2051L96.0449-13.3301C96.4844-12.8906 96.6309-12.5977 96.6309-12.1094C96.6309-11.3281 95.9473-10.7422 95.0684-10.7422C94.6289-10.7422 94.2871-10.8887 93.75-11.4258L72.1191-33.0566L50.3906-11.4258C49.9023-10.8887 49.6582-10.7422 49.1211-10.7422Z"/>
  </g>
  <g id="Black-M" transform="matrix(1 0 0 1 2870.97 1126)">
   <path d="M62.4023 18.457C91.9922 18.457 116.113-5.61523 116.113-35.2051C116.113-64.7949 91.9922-88.8672 62.4023-88.8672C32.8125-88.8672 8.74023-64.7949 8.74023-35.2051C8.74023-5.61523 32.8125 18.457 62.4023 18.457ZM48.3398-13.8184C44.1406-13.8184 40.918-17.041 40.918-21.2891C40.918-23.1445 41.748-25 43.2129-26.416L51.8555-35.1562L43.2129-43.8477C41.748-45.2637 40.918-47.1191 40.918-48.9746C40.918-53.2227 44.1406-56.4453 48.3398-56.4453C50.6836-56.4453 52.4414-55.7617 53.9551-54.248L62.4023-45.752L70.9473-54.248C72.4609-55.7617 74.2188-56.4453 76.5625-56.4453C80.7617-56.4453 83.9844-53.2227 83.9844-48.9746C83.9844-47.1191 83.1543-45.2637 81.6895-43.8477L73.0957-35.1562L81.6895-26.416C83.1543-25 83.9844-23.1445 83.9844-21.2891C83.9844-17.041 80.7617-13.8184 76.5625-13.8184C74.2188-13.8184 72.4609-14.502 70.9473-16.0156L62.4023-24.4629L53.9551-16.0156C52.4414-14.502 50.6836-13.8184 48.3398-13.8184Z"/>
  </g>
  <g id="Heavy-M" transform="matrix(1 0 0 1 2575.19 1126)">
   <path d="M61.5234 17.5293C90.5273 17.5293 114.258-6.20117 114.258-35.2051C114.258-64.2578 90.5273-87.9883 61.4746-87.9883C32.4707-87.9883 8.74023-64.2578 8.74023-35.2051C8.74023-6.20117 32.4707 17.5293 61.5234 17.5293ZM46.6797-13.8672C42.9199-13.8672 40.0879-16.748 40.0879-20.5566C40.0879-22.168 40.7715-23.877 42.0898-25.0977L52.0996-35.1562L42.0898-45.2148C40.7715-46.4355 40.0879-48.0957 40.0879-49.7559C40.0879-53.5645 42.9199-56.3965 46.6797-56.3965C48.7305-56.3965 50.293-55.8105 51.6113-54.4434L61.4746-44.5801L71.4355-54.4922C72.8027-55.8105 74.3164-56.4453 76.3672-56.4453C80.127-56.4453 83.0078-53.5645 83.0078-49.7559C83.0078-48.1445 82.2754-46.4844 80.957-45.2148L70.9961-35.1562L80.957-25.0977C82.2754-23.877 82.959-22.2168 82.959-20.5566C82.959-16.748 80.127-13.8672 76.3672-13.8672C74.3164-13.8672 72.7051-14.502 71.3867-15.8203L61.4746-25.6348L51.6602-15.8203C50.3418-14.502 48.7305-13.8672 46.6797-13.8672Z"/>
  </g>
  <g id="Bold-M" transform="matrix(1 0 0 1 2279.5 1126)">
   <path d="M60.498 16.5039C88.8672 16.5039 112.207-6.83594 112.207-35.2051C112.207-63.623 88.8672-86.9629 60.4492-86.9629C32.0312-86.9629 8.74023-63.623 8.74023-35.2051C8.74023-6.83594 32.0801 16.5039 60.498 16.5039ZM44.8242-13.916C41.6016-13.916 39.1113-16.4062 39.1113-19.6777C39.1113-21.1426 39.7461-22.5586 40.8203-23.6328L52.3438-35.1562L40.8203-46.6797C39.7461-47.7539 39.1113-49.2188 39.1113-50.6348C39.1113-53.9062 41.6016-56.3965 44.8242-56.3965C46.582-56.3965 47.9004-55.8594 49.0234-54.6875L60.4492-43.3105L71.9727-54.7363C73.1445-55.9082 74.4629-56.4453 76.1719-56.4453C79.3945-56.4453 81.8848-53.9551 81.8848-50.6836C81.8848-49.2188 81.2988-47.8516 80.1758-46.7285L68.7012-35.1562L80.127-23.6816C81.25-22.5586 81.8848-21.1426 81.8848-19.6777C81.8848-16.4062 79.3457-13.916 76.123-13.916C74.4141-13.916 72.998-14.4531 71.875-15.5762L60.4492-26.9531L49.1211-15.5762C47.9492-14.4531 46.582-13.916 44.8242-13.916Z"/>
  </g>
  <g id="Semibold-M" transform="matrix(1 0 0 1 1983.5 1126)">
   <path d="M59.7656 15.8203C87.7441 15.8203 110.791-7.27539 110.791-35.2539C110.791-63.2324 87.6953-86.2793 59.7656-86.2793C31.7871-86.2793 8.74023-63.2324 8.74023-35.2539C8.74023-7.27539 31.7871 15.8203 59.7656 15.8203ZM43.5547-13.916C40.6738-13.916 38.4766-16.2109 38.4766-19.0918C38.4766-20.4102 39.0137-21.6797 39.9902-22.6562L52.4902-35.1562L39.9902-47.7051C39.0137-48.6816 38.4766-49.9512 38.4766-51.2695C38.4766-54.1504 40.6738-56.3477 43.5547-56.3477C45.0684-56.3477 46.2891-55.9082 47.2656-54.8828L59.7656-42.4316L72.3145-54.9316C73.3887-55.957 74.5605-56.4453 76.0254-56.4453C78.8574-56.4453 81.1035-54.1992 81.1035-51.3184C81.1035-50 80.6152-48.7793 79.5898-47.7539L67.0898-35.1562L79.541-22.6562C80.5664-21.6797 81.1035-20.4102 81.1035-19.0918C81.1035-16.2109 78.8574-13.916 75.9766-13.916C74.4629-13.916 73.1934-14.4531 72.2168-15.4297L59.7656-27.8809L47.3633-15.4297C46.3379-14.4043 45.0684-13.916 43.5547-13.916Z"/>
  </g>
  <g id="Medium-M" transform="matrix(1 0 0 1 1687.3 1126)">
   <path d="M59.2285 15.2344C86.9141 15.2344 109.766-7.61719 109.766-35.2539C109.766-62.8906 86.8652-85.7422 59.1797-85.7422C31.543-85.7422 8.74023-62.8906 8.74023-35.2539C8.74023-7.61719 31.5918 15.2344 59.2285 15.2344ZM42.5781-13.9648C39.9902-13.9648 37.9395-16.0156 37.9395-18.6523C37.9395-19.8242 38.4277-20.9961 39.3555-21.875L52.6367-35.2051L39.3555-48.4863C38.4277-49.3652 37.9395-50.5371 37.9395-51.709C37.9395-54.3457 39.9902-56.3477 42.5781-56.3477C43.9453-56.3477 45.0195-55.9082 45.8984-55.0293L59.2285-41.748L72.6074-55.0781C73.584-56.0059 74.6094-56.4453 75.9277-56.4453C78.5156-56.4453 80.5664-54.3945 80.5664-51.8066C80.5664-50.5859 80.0781-49.5117 79.1504-48.5352L65.8691-35.2051L79.1504-21.9238C80.0293-20.9961 80.5176-19.873 80.5176-18.6523C80.5176-16.0156 78.4668-13.9648 75.8301-13.9648C74.5117-13.9648 73.3887-14.4531 72.4609-15.332L59.2285-28.5645L45.9961-15.332C45.1172-14.4043 43.9453-13.9648 42.5781-13.9648Z"/>
  </g>
  <g id="Regular-M" transform="matrix(1 0 0 1 1391.3 1126)">
   <path d="M58.5449 14.5508C85.791 14.5508 108.35-8.05664 108.35-35.2539C108.35-62.5 85.7422-85.0586 58.4961-85.0586C31.2988-85.0586 8.74023-62.5 8.74023-35.2539C8.74023-8.05664 31.3477 14.5508 58.5449 14.5508ZM41.3086-13.9648C39.1113-13.9648 37.3047-15.8203 37.3047-18.0664C37.3047-19.1406 37.7441-20.1172 38.4766-20.8984L52.7832-35.2051L38.4766-49.5117C37.7441-50.293 37.3047-51.2695 37.3047-52.3438C37.3047-54.5898 39.1113-56.3477 41.3086-56.3477C42.4805-56.3477 43.4082-55.957 44.1406-55.1758L58.4961-40.8691L72.998-55.2246C73.8281-56.0547 74.707-56.4453 75.7812-56.4453C77.9785-56.4453 79.7852-54.6387 79.7852-52.4414C79.7852-51.3184 79.4434-50.4395 78.6133-49.5605L64.2578-35.2051L78.5645-20.9473C79.3457-20.1172 79.7363-19.1895 79.7363-18.0664C79.7363-15.8203 77.9297-13.9648 75.6836-13.9648C74.5605-13.9648 73.584-14.4531 72.8027-15.1855L58.4961-29.4922L44.2871-15.1855C43.5059-14.4043 42.4805-13.9648 41.3086-13.9648Z"/>
  </g>
  <g id="Light-M" transform="matrix(1 0 0 1 1095.42 1126)">
   <path d="M57.7148 13.7207C84.5215 13.7207 106.689-8.44727 106.689-35.2539C106.689-62.1094 84.5215-84.2285 57.666-84.2285C30.8594-84.2285 8.74023-62.1094 8.74023-35.2539C8.74023-8.44727 30.9082 13.7207 57.7148 13.7207ZM40.332-14.6973C38.5742-14.6973 37.1582-16.0645 37.1582-17.8223C37.1582-18.7012 37.5-19.4336 38.1348-20.0684L53.2227-35.2051L38.1348-50.3418C37.5-50.9766 37.1582-51.709 37.1582-52.5879C37.1582-54.2969 38.5742-55.6641 40.332-55.6641C41.2109-55.6641 41.9434-55.3711 42.5781-54.6875L57.666-39.5996L72.9004-54.7363C73.584-55.4199 74.2676-55.7129 75.1465-55.7129C76.8555-55.7129 78.2715-54.3457 78.2715-52.6367C78.2715-51.7578 77.9785-51.0742 77.3438-50.3418L62.1582-35.2051L77.2949-20.1172C77.9297-19.4336 78.2227-18.7012 78.2227-17.8223C78.2227-16.0645 76.8555-14.6973 75.0488-14.6973C74.1699-14.6973 73.4375-15.0391 72.7539-15.6738L57.666-30.7617L42.6758-15.6738C41.9922-14.9902 41.2109-14.6973 40.332-14.6973Z"/>
  </g>
  <g id="Thin-M" transform="matrix(1 0 0 1 799.806 1126)">
   <path d="M56.6406 12.5977C82.9102 12.5977 104.492-8.98438 104.492-35.2539C104.492-61.5723 82.9102-83.1543 56.5918-83.1543C30.3223-83.1543 8.74023-61.5723 8.74023-35.2539C8.74023-8.98438 30.3223 12.5977 56.6406 12.5977ZM38.9648-15.625C37.8906-15.625 37.0117-16.4551 37.0117-17.5293C37.0117-18.0664 37.1582-18.5547 37.6465-18.9941L53.8574-35.2051L37.6465-51.416C37.1582-51.8555 37.0117-52.2949 37.0117-52.8809C37.0117-53.9551 37.8906-54.7363 38.9648-54.7363C39.5996-54.7363 39.9902-54.5898 40.4785-54.0527L56.5918-37.9883L72.7539-54.1016C73.291-54.5898 73.6816-54.7852 74.2676-54.7852C75.3906-54.7852 76.2695-53.9551 76.2695-52.8809C76.2695-52.2949 76.0742-51.9043 75.6348-51.416L59.4238-35.2051L75.5859-18.9941C76.0742-18.5547 76.2207-18.1152 76.2207-17.5293C76.2207-16.4551 75.3906-15.625 74.2676-15.625C73.6816-15.625 73.1934-15.8203 72.7051-16.3086L56.5918-32.4219L40.5273-16.3086C40.0391-15.8203 39.5996-15.625 38.9648-15.625Z"/>
  </g>
  <g id="Ultralight-M" transform="matrix(1 0 0 1 503.656 1126)">
   <path d="M56.0547 12.0605C82.0801 12.0605 103.369-9.22852 103.369-35.2539C103.369-61.2793 82.0801-82.5684 56.0547-82.5684C30.0293-82.5684 8.74023-61.2793 8.74023-35.2539C8.74023-9.22852 30.0293 12.0605 56.0547 12.0605ZM38.2812-16.1133C37.5-16.1133 36.9141-16.6504 36.9141-17.3828C36.9141-17.7734 37.0117-18.0664 37.4023-18.457L54.1504-35.2051L37.4023-51.9531C37.0117-52.2949 36.9141-52.5879 36.9141-53.0273C36.9141-53.7598 37.5-54.2969 38.2812-54.2969C38.7695-54.2969 39.0137-54.1504 39.4531-53.7598L56.0547-37.1094L72.7051-53.7598C73.0957-54.1504 73.3887-54.2969 73.8281-54.2969C74.6094-54.2969 75.2441-53.7598 75.2441-53.0273C75.2441-52.5879 75.0977-52.2949 74.7559-51.9531L58.0078-35.2051L74.7559-18.457C75.0977-18.0664 75.2441-17.7734 75.2441-17.3828C75.2441-16.6504 74.6094-16.1133 73.8281-16.1133C73.4375-16.1133 73.0957-16.2109 72.7051-16.6504L56.0547-33.252L39.4531-16.6504C39.0137-16.2109 38.7695-16.1133 38.2812-16.1133Z"/>
  </g>
  <g id="Black-S" transform="matrix(1 0 0 1 2884.57 696)">
   <path d="M48.8281 6.78711C71.9727 6.78711 90.8203-12.0605 90.8203-35.2051C90.8203-58.3496 71.9727-77.1973 48.8281-77.1973C25.6836-77.1973 6.83594-58.3496 6.83594-35.2051C6.83594-12.0605 25.6836 6.78711 48.8281 6.78711ZM37.7441-18.457C34.4727-18.457 31.9824-20.9473 31.9824-24.2676C31.9824-25.6836 32.6172-27.1484 33.7402-28.2227L40.625-35.1562L33.7402-42.0898C32.6172-43.1641 31.9824-44.6289 31.9824-46.0449C31.9824-49.3652 34.4727-51.8555 37.7441-51.8555C39.5508-51.8555 40.918-51.3184 42.0898-50.1465L48.8281-43.4082L55.6152-50.1465C56.7871-51.3184 58.1543-51.8555 59.9609-51.8555C63.2324-51.8555 65.7227-49.3652 65.7227-46.0449C65.7227-44.6289 65.0879-43.1641 63.9648-42.0898L57.1289-35.1562L63.9648-28.2227C65.0879-27.1484 65.7227-25.6836 65.7227-24.2676C65.7227-20.9473 63.2324-18.457 59.9609-18.457C58.1543-18.457 56.7871-18.9941 55.6152-20.166L48.8281-26.8555L42.0898-20.166C40.918-18.9941 39.5508-18.457 37.7441-18.457Z"/>
  </g>
  <g id="Heavy-S" transform="matrix(1 0 0 1 2588.47 696)">
   <path d="M48.2422 6.15234C70.9961 6.15234 89.5996-12.4512 89.5996-35.2051C89.5996-57.959 70.9961-76.6113 48.1934-76.6113C25.4395-76.6113 6.83594-57.959 6.83594-35.2051C6.83594-12.4512 25.4395 6.15234 48.2422 6.15234ZM36.5723-18.4082C33.6426-18.4082 31.3477-20.7031 31.3477-23.6816C31.3477-25 31.9336-26.3184 32.9102-27.2949L40.7227-35.1562L32.9102-43.0176C31.9336-43.9941 31.3477-45.3125 31.3477-46.6309C31.3477-49.6582 33.6426-51.9043 36.5723-51.9043C38.1836-51.9043 39.4531-51.416 40.4785-50.3906L48.1934-42.6758L56.0059-50.3906C57.0312-51.4648 58.3008-51.9531 59.9121-51.9531C62.8418-51.9531 65.1367-49.6582 65.1367-46.6309C65.1367-45.3125 64.5508-44.043 63.5254-43.0176L55.7617-35.1562L63.5254-27.3438C64.5508-26.3184 65.1367-25 65.1367-23.6816C65.1367-20.7031 62.8418-18.4082 59.8633-18.4082C58.252-18.4082 56.9824-18.8965 55.957-19.9707L48.1934-27.6367L40.5273-19.9707C39.4531-18.8965 38.1836-18.4082 36.5723-18.4082Z"/>
  </g>
  <g id="Bold-S" transform="matrix(1 0 0 1 2292.44 696)">
   <path d="M47.5586 5.46875C69.873 5.46875 88.2324-12.8906 88.2324-35.2539C88.2324-57.5684 69.873-75.9277 47.5098-75.9277C25.1953-75.9277 6.83594-57.5684 6.83594-35.2539C6.83594-12.8906 25.1953 5.46875 47.5586 5.46875ZM35.3027-18.3594C32.666-18.3594 30.6152-20.4102 30.6152-23.0957C30.6152-24.2676 31.1523-25.4395 32.0312-26.3184L40.8691-35.2051L32.0312-44.043C31.1523-44.9219 30.6152-46.0938 30.6152-47.2656C30.6152-49.9512 32.666-51.9531 35.3027-51.9531C36.7188-51.9531 37.793-51.5625 38.7207-50.6348L47.5098-41.8457L56.3965-50.6348C57.373-51.6113 58.4473-52.002 59.8145-52.002C62.4512-52.002 64.502-50 64.502-47.3145C64.502-46.1426 64.0137-45.0195 63.0859-44.0918L54.248-35.2051L63.0371-26.3184C63.9648-25.4395 64.4531-24.2676 64.4531-23.0957C64.4531-20.4102 62.4023-18.3594 59.7656-18.3594C58.3496-18.3594 57.2266-18.7988 56.2988-19.7266L47.5098-28.5156L38.7695-19.7266C37.8418-18.7988 36.7188-18.3594 35.3027-18.3594Z"/>
  </g>
  <g id="Semibold-S" transform="matrix(1 0 0 1 1996.2 696)">
   <path d="M47.0703 4.98047C69.0918 4.98047 87.3047-13.1836 87.3047-35.2539C87.3047-57.2754 69.0918-75.4883 47.0215-75.4883C25-75.4883 6.83594-57.2754 6.83594-35.2539C6.83594-13.1836 25.0488 4.98047 47.0703 4.98047ZM34.4238-18.3105C32.0312-18.3105 30.127-20.2148 30.127-22.6562C30.127-23.7305 30.6152-24.8047 31.3965-25.5859L40.9668-35.2051L31.3965-44.7754C30.6152-45.5566 30.127-46.6309 30.127-47.7539C30.127-50.1465 32.0312-52.002 34.4238-52.002C35.6445-52.002 36.6699-51.6113 37.4512-50.7812L47.0215-41.2598L56.6895-50.8301C57.5684-51.709 58.5449-52.0996 59.7656-52.0996C62.1582-52.0996 64.0137-50.1953 64.0137-47.8027C64.0137-46.6797 63.623-45.6543 62.7441-44.8242L53.1738-35.2051L62.7441-25.6348C63.5254-24.8047 64.0137-23.7793 64.0137-22.6562C64.0137-20.2148 62.1094-18.3105 59.7168-18.3105C58.4473-18.3105 57.4219-18.75 56.5918-19.5312L47.0215-29.1016L37.5488-19.5312C36.7188-18.75 35.6445-18.3105 34.4238-18.3105Z"/>
  </g>
  <g id="Medium-S" transform="matrix(1 0 0 1 1699.83 696)">
   <path d="M46.7285 4.63867C68.5547 4.63867 86.6211-13.4277 86.6211-35.2539C86.6211-57.0801 68.5059-75.1465 46.6797-75.1465C24.8535-75.1465 6.83594-57.0801 6.83594-35.2539C6.83594-13.4277 24.9023 4.63867 46.7285 4.63867ZM33.7402-18.2617C31.543-18.2617 29.7852-20.0684 29.7852-22.3145C29.7852-23.3398 30.1758-24.3164 30.9082-25.0977L41.0645-35.2051L30.9082-45.3125C30.1758-46.0449 29.7852-47.0703 29.7852-48.0957C29.7852-50.3418 31.543-52.0508 33.7402-52.0508C34.8633-52.0508 35.791-51.6602 36.5234-50.9277L46.6797-40.8203L56.9336-50.9766C57.7148-51.7578 58.6426-52.1484 59.7168-52.1484C61.9141-52.1484 63.6719-50.3906 63.6719-48.1445C63.6719-47.0703 63.2812-46.1914 62.5-45.3613L52.3926-35.2051L62.5-25.0977C63.2324-24.3164 63.6719-23.3887 63.6719-22.3145C63.6719-20.0684 61.9141-18.2617 59.6191-18.2617C58.4961-18.2617 57.5195-18.7012 56.7871-19.4336L46.6797-29.541L36.6211-19.4336C35.8887-18.6523 34.8633-18.2617 33.7402-18.2617Z"/>
  </g>
  <g id="Regular-S" transform="matrix(1 0 0 1 1403.58 696)">
   <path d="M46.2402 4.15039C67.7734 4.15039 85.6934-13.7207 85.6934-35.2539C85.6934-56.7871 67.7246-74.6582 46.1914-74.6582C24.707-74.6582 6.83594-56.7871 6.83594-35.2539C6.83594-13.7207 24.7559 4.15039 46.2402 4.15039ZM32.8613-18.2129C30.8594-18.2129 29.2969-19.873 29.2969-21.875C29.2969-22.8516 29.6387-23.7305 30.3223-24.3652L41.1133-35.2051L30.3223-46.0449C29.6387-46.6797 29.2969-47.5586 29.2969-48.5352C29.2969-50.5371 30.8594-52.0996 32.8613-52.0996C33.8379-52.0996 34.668-51.7578 35.3027-51.0742L46.1914-40.2344L57.2266-51.123C57.9102-51.8555 58.7402-52.1973 59.668-52.1973C61.6211-52.1973 63.2324-50.5859 63.2324-48.6328C63.2324-47.6074 62.8906-46.8262 62.207-46.0938L51.3184-35.2051L62.1582-24.4141C62.8418-23.7305 63.1836-22.9004 63.1836-21.875C63.1836-19.873 61.5723-18.2129 59.5703-18.2129C58.5938-18.2129 57.7148-18.6523 57.0312-19.2871L46.1914-30.127L35.4492-19.2871C34.7656-18.6035 33.8379-18.2129 32.8613-18.2129Z"/>
  </g>
  <g id="Light-S" transform="matrix(1 0 0 1 1107.6 696)">
   <path d="M45.5078 3.41797C66.6992 3.41797 84.2285-14.0625 84.2285-35.2539C84.2285-56.4453 66.6504-73.9258 45.5078-73.9258C24.3164-73.9258 6.83594-56.4453 6.83594-35.2539C6.83594-14.0625 24.3652 3.41797 45.5078 3.41797ZM31.9336-18.8477C30.4199-18.8477 29.1504-20.1172 29.1504-21.6797C29.1504-22.4121 29.4434-23.1445 29.9805-23.6816L41.5527-35.2051L29.9805-46.7285C29.4434-47.2656 29.1504-47.998 29.1504-48.7305C29.1504-50.293 30.4199-51.5137 31.9336-51.5137C32.7637-51.5137 33.3984-51.2207 33.9355-50.6836L45.5078-39.1602L57.1289-50.6836C57.7148-51.3184 58.3496-51.5625 59.082-51.5625C60.6445-51.5625 61.9141-50.3418 61.9141-48.7793C61.9141-47.998 61.6211-47.3633 61.0352-46.7773L49.5117-35.2051L61.0352-23.6816C61.5723-23.1445 61.8652-22.4609 61.8652-21.6797C61.8652-20.1172 60.5957-18.8477 59.0332-18.8477C58.252-18.8477 57.5684-19.1895 56.9824-19.7266L45.5078-31.25L34.0332-19.7266C33.4473-19.1406 32.7637-18.8477 31.9336-18.8477Z"/>
  </g>
  <g id="Thin-S" transform="matrix(1 0 0 1 811.867 696)">
   <path d="M44.5801 2.49023C65.2832 2.49023 82.2754-14.5508 82.2754-35.2539C82.2754-55.957 65.2344-72.998 44.5312-72.998C23.8281-72.998 6.83594-55.957 6.83594-35.2539C6.83594-14.5508 23.877 2.49023 44.5801 2.49023ZM30.7617-19.6777C29.7852-19.6777 29.0039-20.459 29.0039-21.4355C29.0039-21.9238 29.1992-22.3145 29.5898-22.7051L42.041-35.2051L29.5898-47.7051C29.1992-48.0957 29.0039-48.4863 29.0039-48.9746C29.0039-49.9512 29.7852-50.6836 30.7617-50.6836C31.3477-50.6836 31.6895-50.5371 32.1289-50.0977L44.5312-37.6953L57.0312-50.1465C57.4707-50.5859 57.8613-50.7324 58.3496-50.7324C59.3262-50.7324 60.1074-50 60.1074-49.0234C60.1074-48.4863 59.9609-48.0957 59.5703-47.7051L47.0703-35.2051L59.5215-22.7539C59.9121-22.3145 60.1074-21.9238 60.1074-21.4355C60.1074-20.459 59.3262-19.6777 58.3008-19.6777C57.8125-19.6777 57.373-19.873 56.9824-20.2637L44.5312-32.7148L32.1289-20.2637C31.7383-19.873 31.3477-19.6777 30.7617-19.6777Z"/>
  </g>
  <g id="Ultralight-S" transform="matrix(1 0 0 1 515.644 696)">
   <path d="M44.043 1.95312C64.502 1.95312 81.2988-14.7949 81.2988-35.2539C81.2988-55.7129 64.502-72.4609 44.043-72.4609C23.584-72.4609 6.83594-55.7129 6.83594-35.2539C6.83594-14.7949 23.584 1.95312 44.043 1.95312ZM30.1758-20.1172C29.4434-20.1172 28.9062-20.6055 28.9062-21.2891C28.9062-21.6309 29.0527-21.9238 29.3457-22.2168L42.334-35.2051L29.3457-48.1934C29.0527-48.4863 28.9062-48.7793 28.9062-49.1211C28.9062-49.8047 29.4434-50.293 30.1758-50.293C30.5664-50.293 30.8105-50.1953 31.1523-49.8047L44.043-36.9629L56.9336-49.8047C57.3242-50.1953 57.5684-50.293 57.959-50.293C58.6426-50.293 59.1797-49.8047 59.1797-49.1211C59.1797-48.7793 59.082-48.4863 58.7891-48.1934L45.8008-35.2051L58.7891-22.2168C59.082-21.9238 59.1797-21.6309 59.1797-21.2891C59.1797-20.6055 58.6426-20.1172 57.959-20.1172C57.5684-20.1172 57.2754-20.2148 56.9336-20.6055L44.043-33.4473L31.2012-20.6055C30.8105-20.2148 30.5664-20.1172 30.1758-20.1172Z"/>
  </g>
 </g>
</svg>
